<svg xmlns="http://www.w3.org/2000/svg" xmlns:xlink="http://www.w3.org/1999/xlink" width="500" zoomAndPan="magnify" viewBox="0 0 375 374.999991" height="500" preserveAspectRatio="xMidYMid meet" version="1.0"><defs><clipPath id="a91c406cbf"><path d="M 14.191406 14.191406 L 360 14.191406 L 360 360.691406 L 14.191406 360.691406 Z M 14.191406 14.191406 " clip-rule="nonzero"/></clipPath></defs><g clip-path="url(#a91c406cbf)"><path fill="#000000" d="M 193.386719 14.75 C 191.59375 14.800781 189.875 15.191406 188.234375 15.914062 C 186.589844 16.636719 185.144531 17.640625 183.894531 18.925781 L 101.066406 101.757812 C 100.402344 102.390625 99.808594 103.085938 99.285156 103.839844 C 98.761719 104.597656 98.320312 105.394531 97.953125 106.238281 C 97.589844 107.082031 97.3125 107.953125 97.121094 108.847656 C 96.929688 109.746094 96.832031 110.65625 96.824219 111.574219 C 96.8125 112.492188 96.894531 113.402344 97.066406 114.304688 C 97.238281 115.207031 97.5 116.082031 97.847656 116.933594 C 98.191406 117.785156 98.621094 118.589844 99.128906 119.355469 C 99.636719 120.121094 100.214844 120.828125 100.867188 121.476562 C 101.515625 122.125 102.222656 122.707031 102.988281 123.214844 C 103.75 123.722656 104.558594 124.148438 105.410156 124.496094 C 106.257812 124.84375 107.136719 125.105469 108.039062 125.277344 C 108.941406 125.449219 109.851562 125.53125 110.769531 125.519531 C 111.6875 125.511719 112.59375 125.410156 113.492188 125.21875 C 114.390625 125.03125 115.261719 124.753906 116.105469 124.386719 C 116.949219 124.023438 117.746094 123.578125 118.5 123.054688 C 119.253906 122.53125 119.949219 121.9375 120.585938 121.277344 L 203.414062 38.449219 C 203.910156 37.964844 204.367188 37.449219 204.785156 36.898438 C 205.203125 36.347656 205.578125 35.769531 205.910156 35.164062 C 206.242188 34.554688 206.527344 33.925781 206.761719 33.277344 C 207 32.628906 207.1875 31.964844 207.324219 31.285156 C 207.460938 30.609375 207.546875 29.921875 207.582031 29.234375 C 207.617188 28.542969 207.597656 27.851562 207.527344 27.164062 C 207.460938 26.476562 207.339844 25.796875 207.167969 25.128906 C 206.996094 24.457031 206.777344 23.804688 206.507812 23.167969 C 206.238281 22.53125 205.921875 21.917969 205.558594 21.328125 C 205.199219 20.738281 204.792969 20.179688 204.347656 19.652344 C 203.902344 19.121094 203.421875 18.628906 202.902344 18.171875 C 202.382812 17.714844 201.828125 17.300781 201.246094 16.929688 C 200.664062 16.554688 200.058594 16.226562 199.429688 15.945312 C 198.796875 15.664062 198.148438 15.429688 197.480469 15.246094 C 196.816406 15.058594 196.136719 14.925781 195.453125 14.84375 C 194.765625 14.757812 194.078125 14.726562 193.386719 14.75 Z M 221.265625 56.296875 C 219.414062 56.296875 217.636719 56.65625 215.929688 57.371094 C 214.222656 58.085938 212.71875 59.101562 211.421875 60.421875 L 142.964844 128.933594 C 141.527344 130.238281 140.414062 131.777344 139.625 133.550781 C 138.835938 135.328125 138.441406 137.183594 138.4375 139.125 C 138.433594 140.132812 138.542969 141.128906 138.757812 142.109375 C 138.976562 143.09375 139.296875 144.039062 139.71875 144.953125 C 140.144531 145.867188 140.660156 146.722656 141.273438 147.523438 C 141.882812 148.324219 142.574219 149.046875 143.34375 149.695312 L 225.199219 231.605469 C 226.5 232.933594 228.003906 233.957031 229.714844 234.679688 C 231.429688 235.398438 233.210938 235.757812 235.070312 235.757812 C 236.90625 235.757812 238.671875 235.40625 240.371094 234.699219 C 242.066406 233.996094 243.5625 232.992188 244.855469 231.6875 L 313.71875 162.824219 C 315.054688 161.527344 316.085938 160.019531 316.808594 158.300781 C 317.535156 156.585938 317.898438 154.792969 317.898438 152.929688 C 317.898438 151.082031 317.539062 149.300781 316.824219 147.59375 C 316.109375 145.890625 315.09375 144.386719 313.773438 143.089844 L 231.160156 60.476562 C 231.105469 60.421875 231.050781 60.367188 230.996094 60.316406 C 229.703125 59.027344 228.214844 58.039062 226.527344 57.339844 C 224.84375 56.644531 223.089844 56.296875 221.265625 56.296875 Z M 345.238281 166.601562 C 343.445312 166.652344 341.726562 167.042969 340.085938 167.765625 C 338.441406 168.488281 336.996094 169.492188 335.746094 170.78125 L 252.917969 253.609375 C 252.257812 254.246094 251.664062 254.941406 251.140625 255.695312 C 250.617188 256.449219 250.171875 257.246094 249.808594 258.089844 C 249.441406 258.933594 249.164062 259.804688 248.976562 260.703125 C 248.785156 261.601562 248.683594 262.507812 248.675781 263.425781 C 248.664062 264.34375 248.746094 265.253906 248.917969 266.15625 C 249.089844 267.058594 249.351562 267.9375 249.699219 268.785156 C 250.046875 269.636719 250.472656 270.445312 250.980469 271.207031 C 251.488281 271.972656 252.070312 272.679688 252.71875 273.328125 C 253.367188 273.980469 254.074219 274.558594 254.839844 275.066406 C 255.605469 275.574219 256.410156 276.003906 257.261719 276.347656 C 258.113281 276.695312 258.988281 276.957031 259.890625 277.128906 C 260.792969 277.300781 261.703125 277.382812 262.621094 277.371094 C 263.539062 277.363281 264.445312 277.261719 265.34375 277.074219 C 266.242188 276.882812 267.113281 276.605469 267.957031 276.242188 C 268.800781 275.875 269.597656 275.433594 270.355469 274.910156 C 271.109375 274.386719 271.804688 273.792969 272.4375 273.128906 L 355.269531 190.300781 C 355.765625 189.820312 356.222656 189.300781 356.640625 188.75 C 357.058594 188.199219 357.433594 187.621094 357.761719 187.015625 C 358.09375 186.40625 358.378906 185.78125 358.617188 185.128906 C 358.851562 184.480469 359.039062 183.816406 359.175781 183.136719 C 359.3125 182.460938 359.398438 181.777344 359.433594 181.085938 C 359.46875 180.394531 359.449219 179.707031 359.382812 179.015625 C 359.3125 178.328125 359.191406 177.648438 359.019531 176.980469 C 358.847656 176.308594 358.628906 175.65625 358.359375 175.019531 C 358.089844 174.382812 357.773438 173.769531 357.414062 173.179688 C 357.050781 172.589844 356.648438 172.03125 356.203125 171.503906 C 355.753906 170.972656 355.273438 170.480469 354.753906 170.027344 C 354.234375 169.570312 353.683594 169.15625 353.101562 168.78125 C 352.519531 168.40625 351.910156 168.078125 351.28125 167.796875 C 350.648438 167.515625 350 167.28125 349.332031 167.097656 C 348.667969 166.910156 347.992188 166.777344 347.304688 166.695312 C 346.617188 166.613281 345.929688 166.582031 345.238281 166.601562 Z M 156.285156 198.390625 L 24.84375 310.632812 C 23.1875 311.921875 21.695312 313.382812 20.375 315.011719 C 19.050781 316.640625 17.925781 318.398438 17.003906 320.28125 C 16.082031 322.167969 15.382812 324.132812 14.90625 326.175781 C 14.433594 328.222656 14.195312 330.292969 14.191406 332.394531 C 14.191406 333.296875 14.238281 334.199219 14.324219 335.097656 C 14.414062 336 14.546875 336.890625 14.722656 337.777344 C 14.898438 338.667969 15.117188 339.542969 15.382812 340.40625 C 15.644531 341.273438 15.949219 342.125 16.292969 342.957031 C 16.640625 343.792969 17.027344 344.609375 17.453125 345.40625 C 17.878906 346.207031 18.34375 346.980469 18.847656 347.730469 C 19.347656 348.484375 19.886719 349.210938 20.460938 349.910156 C 21.035156 350.605469 21.640625 351.277344 22.28125 351.914062 C 22.917969 352.554688 23.589844 353.160156 24.285156 353.734375 C 24.984375 354.308594 25.710938 354.847656 26.464844 355.347656 C 27.214844 355.851562 27.988281 356.316406 28.789062 356.742188 C 29.585938 357.167969 30.402344 357.554688 31.238281 357.902344 C 32.070312 358.246094 32.921875 358.550781 33.789062 358.8125 C 34.652344 359.074219 35.527344 359.296875 36.414062 359.472656 C 37.304688 359.648438 38.195312 359.78125 39.097656 359.871094 C 39.996094 359.957031 40.898438 360.003906 41.800781 360.003906 C 43.859375 360.003906 45.890625 359.773438 47.898438 359.320312 C 49.90625 358.867188 51.835938 358.195312 53.691406 357.308594 C 55.550781 356.421875 57.285156 355.34375 58.902344 354.066406 C 60.515625 352.792969 61.96875 351.355469 63.265625 349.757812 C 63.308594 349.703125 63.355469 349.648438 63.398438 349.59375 L 63.425781 349.566406 L 175.804688 217.910156 Z M 156.285156 198.390625 " fill-opacity="1" fill-rule="nonzero"/></g></svg>